IKResults-ET2
version=1
nRows=24
nColumns=24
inDegrees=yes

Units are S.I. units (second, meters, Newtons, ...)
If the header above contains a line with 'inDegrees', this indicates whether rotational values are in degrees (yes) or radians (no).

endheader
time	pelvis_tilt	pelvis_list	pelvis_rotation	pelvis_tx	pelvis_ty	pelvis_tz	hip_flexion_r	hip_adduction_r	hip_rotation_r	knee_angle_r	ankle_angle_r	subtalar_angle_r	mtp_angle_r	hip_flexion_l	hip_adduction_l	hip_rotation_l	knee_angle_l	ankle_angle_l	subtalar_angle_l	mtp_angle_l	lumbar_extension	lumbar_bending	lumbar_rotation
      2.35000000	      6.82999014	     -4.81562395	    178.98129188	      4.10117159	      0.97538495	     -0.23423211	    173.64791866	   -176.51533431	   -180.24541624	    -24.85798400	     15.37352165	      1.86088886	      0.00000000	     31.54243601	      4.78189487	      3.62146501	    -16.98914676	      4.16973126	     -0.54211343	      0.00000000	    -13.65326475	     -9.54795442	      7.74284330
      2.36000000	      6.92072388	     -4.96446915	    179.05392913	      4.09047990	      0.97639643	     -0.23147753	    173.88770962	   -176.05983711	   -180.65146949	    -25.97594825	     13.88588909	      2.17463020	      0.00000000	     31.34835956	      5.22813991	      3.88961075	    -17.60657727	      4.01919044	     -0.63377354	      0.00000000	    -13.42103605	     -9.72334012	      7.85551899
      2.37000000	      6.94429638	     -5.02523800	    179.12507891	      4.07952587	      0.97771041	     -0.22857668	    174.07208796	   -175.72869481	   -180.76051727	    -27.03975462	     12.09326821	      2.20197796	      0.00000000	     31.08499791	      5.60079050	      4.18467146	    -18.27850027	      3.88790467	     -0.94112811	      0.00000000	    -13.23801720	     -9.74116876	      8.09878659
      2.38000000	      6.88121214	     -5.10792143	    179.26083817	      4.06874558	      0.97913144	     -0.22572770	    174.32770272	   -175.31269320	   -181.22098704	    -28.40662837	     10.35970415	      2.70160268	      0.00000000	     30.81333510	      5.98457719	      4.39976042	    -19.13241068	      4.01925949	     -0.92523284	      0.00000000	    -13.21827710	     -9.81968790	      8.11628166
      2.39000000	      6.82201305	     -5.19324415	    179.41422615	      4.05766402	      0.98040439	     -0.22240303	    174.71440142	   -174.79002263	   -181.86192332	    -29.98643160	      8.34590942	      3.38153852	      0.00000000	     30.52494560	      6.39967382	      4.57466781	    -19.97794994	      4.24976477	     -0.91811601	      0.00000000	    -13.14596940	     -9.82522654	      8.10750727
      2.40000000	      6.61570261	     -5.17742854	    179.59057189	      4.04664688	      0.98201689	     -0.21939042	    174.98600083	   -174.47034863	   -182.18951552	    -31.54721880	      6.61226966	      3.59137981	      0.00000000	     30.01482914	      6.67884152	      4.71358891	    -20.69866468	      4.45755478	     -0.69098773	      0.00000000	    -13.27350709	     -9.73199509	      8.04147003
      2.41000000	      6.43733865	     -5.21759871	    179.74019435	      4.03553808	      0.98326142	     -0.21619199	    175.53329314	   -173.95790179	   -182.76105082	    -33.53110295	      4.52137986	      4.24283794	      0.00000000	     29.49289511	      6.96182630	      4.74954070	    -21.34848475	      4.17365927	     -0.30954224	      0.00000000	    -13.33961388	     -9.70802303	      7.97979525
      2.42000000	      6.18362786	     -5.22651027	    179.87597985	      4.02435384	      0.98440338	     -0.21296763	    176.13144715	   -173.43010588	   -183.33834804	    -35.70712387	      2.24556982	      4.94424013	      0.00000000	     28.78352430	      7.20955103	      4.64587117	    -21.74768304	      4.78664037	     -0.29544229	      0.00000000	    -13.45636444	     -9.61731132	      7.88249973
      2.43000000	      5.95849589	     -5.32925768	    180.00035455	      4.01324403	      0.98535440	     -0.20967090	    176.98514106	   -172.77471217	   -183.85295057	    -38.24766003	     -0.27701328	      5.56599512	      0.00000000	     28.05312641	      7.51354428	      4.51093991	    -22.10051180	      4.63955984	      0.21125485	      0.00000000	    -13.53391734	     -9.62818182	      7.74644819
      2.44000000	      5.69802197	     -5.32626298	    180.08992361	      4.00214611	      0.98617818	     -0.20656048	    177.85336833	   -172.30090433	   -184.02070807	    -40.73651871	     -3.02140680	      5.42194648	      0.00000000	     27.22324128	      7.67595516	      4.10705121	    -22.34032375	      5.82233880	      1.31749210	      0.00000000	    -13.67694083	     -9.51037675	      7.41035516
      2.45000000	      5.47727421	     -5.42299610	    180.17373999	      3.99130331	      0.98695143	     -0.20340512	    178.93737193	   -171.70304409	   -184.13182508	    -43.38811945	     -5.32396551	      5.41226290	      0.00000000	     26.42065087	      7.93058148	      3.64520200	    -22.61808202	      6.69839950	      2.42674186	      0.00000000	    -13.75405268	     -9.51882870	      7.12825348
      2.46000000	      5.27209776	     -5.65873916	    180.23063562	      3.98074080	      0.98781622	     -0.20033676	    180.14858796	   -171.00163080	   -184.06253776	    -46.00755745	     -8.81767148	      4.79765987	      0.00000000	     25.42203458	      8.34881828	      3.45226224	    -22.55623763	      7.51558718	      2.84719916	      0.00000000	    -13.86738380	     -9.69763025	      6.85479500
      2.47000000	      5.06230527	     -5.78100313	    180.25614160	      3.97028567	      0.98847546	     -0.19768980	    181.42415383	   -170.53046583	   -183.80398280	    -48.50796578	    -12.34392212	      3.81503756	      0.00000000	     24.65742095	      8.60934141	      3.09863646	    -22.78291306	      8.41763912	      3.60979096	      0.00000000	    -13.95702088	     -9.81001379	      6.59078123
      2.48000000	      4.86122428	     -6.04952643	    180.25476620	      3.96008767	      0.98930905	     -0.19507771	    182.78561177	   -169.95138363	   -183.44584372	    -50.91194683	    -14.80829265	      2.55477872	      0.00000000	     23.73625862	      9.01258772	      2.85015365	    -22.75306689	      9.34753043	      4.14627705	      0.00000000	    -14.09507214	    -10.07693941	      6.30755533
      2.49000000	      4.65417949	     -6.43902825	    180.21198085	      3.94995010	      0.99014797	     -0.19255332	    184.23723608	   -169.20822922	   -183.12120443	    -53.34408121	    -16.48027084	      1.68140499	      0.00000000	     22.54300661	      9.58115092	      3.02824769	    -22.16926062	      9.87736867	      4.02046080	      0.00000000	    -14.23961264	    -10.47274125	      6.01430341
      2.50000000	      4.49454511	     -6.71400636	    180.15096267	      3.94012815	      0.99103172	     -0.19059016	    185.81069921	   -168.72852744	   -182.71509994	    -55.81836476	    -16.21454626	      0.71777953	      0.00000000	     21.58998048	      9.89332761	      2.50380430	    -22.11000442	     10.83672244	      5.07134357	      0.00000000	    -14.34806711	    -10.78845532	      5.71809994
      2.51000000	      4.33446821	     -6.97830032	    180.08946986	      3.93035055	      0.99203417	     -0.18878379	    187.42094600	   -168.33114613	   -182.29455446	    -58.10668348	    -14.84988523	      0.18582956	      0.00000000	     20.56203197	     10.23242660	      2.33524919	    -21.71517750	     11.36789608	      5.27411460	      0.00000000	    -14.48583514	    -11.12974189	      5.58871881
      2.52000000	      4.03960428	     -7.07991267	    180.14998526	      3.91992643	      0.99342653	     -0.18717387	    188.73754831	   -168.17651584	   -182.11816042	    -60.01744795	    -13.87311150	     -0.09583680	      0.00000000	     19.30445398	     10.45245070	      2.55720621	    -21.07935570	     11.80329563	      5.48475344	      0.00000000	    -14.68228584	    -11.25825969	      5.38100577
      2.53000000	      3.86845221	     -7.18860590	    180.09631323	      3.91024622	      0.99476770	     -0.18577552	    190.36550956	   -168.07815108	   -181.71404598	    -61.78902271	    -11.38901874	     -0.13646919	      0.00000000	     18.17891095	     10.56662243	      2.25049534	    -20.67980775	     12.64340693	      6.47147070	      0.00000000	    -14.87045166	    -11.39644718	      4.87071325
      2.54000000	      3.68900905	     -7.20717614	    180.06313897	      3.90042640	      0.99621690	     -0.18438313	    191.92431038	   -168.11437436	   -181.39442093	    -63.20918986	     -9.63321621	     -0.51075263	      0.00000000	     17.03386293	     10.63062162	      2.22202800	    -20.12814175	     13.18565275	      6.88293144	      0.00000000	    -15.03104179	    -11.43933321	      4.50261483
      2.55000000	      3.57838514	     -7.09664445	    180.08108818	      3.89061989	      0.99759227	     -0.18286000	    193.50557446	   -168.31290230	   -181.14582935	    -64.25290074	     -8.12059462	     -1.15705393	      0.00000000	     16.01143506	     10.56127005	      2.11877478	    -19.68012180	     13.72450290	      7.45721010	      0.00000000	    -15.08788039	    -11.31231663	      4.21033666
      2.56000000	      3.41958304	     -6.97299996	    180.16588053	      3.88087157	      0.99907153	     -0.18139559	    194.97730055	   -168.55138201	   -180.98986967	    -64.99849018	     -6.66044658	     -1.94841343	      0.00000000	     14.86429318	     10.50171163	      2.23593403	    -19.09563175	     14.19696185	      7.85546602	      0.00000000	    -15.25674963	    -11.15894640	      3.86599264
      2.57000000	      3.24296584	     -6.78538928	    180.28550467	      3.87108099	      1.00059978	     -0.18002337	    196.34935599	   -168.89324145	   -180.89312540	    -65.41768681	     -5.16972364	     -2.67915307	      0.00000000	     13.62037441	     10.35736926	      2.25913693	    -18.36104250	     14.49541768	      8.33156777	      0.00000000	    -15.45649956	    -10.92682295	      3.56631541
      2.58000000	      3.07467403	     -6.60324460	    180.47432384	      3.86131450	      1.00199090	     -0.17835966	    197.64161412	   -169.22297873	   -180.86387200	    -65.51579858	     -3.93839243	     -3.38766170	      0.00000000	     12.56082556	     10.26560646	      2.57294622	    -17.99616124	     15.04280613	      8.71294709	      0.00000000	    -15.61500303	    -10.65232888	      3.12230860
